<?xml version="1.0" ?><svg style="enable-background:new 0 0 100 100;" version="1.1" viewBox="0 0 100 100" xml:space="preserve" xmlns="http://www.w3.org/2000/svg" xmlns:xlink="http://www.w3.org/1999/xlink"><g id="store"/><g id="groceries"/><g id="fruits"/><g id="bakery"/><g id="hygiene_product"/><g id="detergent"/><g id="cooking_oil"/><g id="snacks"/><g id="canned_food"/><g id="wheat_flour"/><g id="milk_powder"/><g id="coffee_powder"/><g id="tea_bag"/><g id="meat"/><g id="chicken"/><g id="cart"><g><path d="M94.9,69.2C94.1,68.4,93.1,68,92,68h-6.5c-2-1.9-4.6-3-7.5-3s-5.6,1.1-7.5,3H50.5c-2-1.9-4.6-3-7.5-3s-5.6,1.1-7.5,3h-4.7    c-1,0-1.8-0.8-1.8-1.8c0-0.6,0.3-1.2,0.8-1.5l5.3-3.3c0.6-0.4,1-0.8,1.3-1.4l34.5-1.3c0,0,0,0,0,0c0,0,0,0,0,0l7-0.3    c1.7-0.1,3.4-0.4,4.9-1c0,0,0,0,0,0c0.1,0,0.1-0.1,0.2-0.1c5.2-2,9.2-6.7,10.1-12.5c0,0,0-0.1,0-0.1c0-0.3,0.1-0.5,0.1-0.8l2.6-25    c0-0.3-0.1-0.6-0.3-0.8S95.3,18,95,18H28.9c-0.5-1.7-2-3-3.9-3h-5v-1c0-0.6-0.4-1-1-1H5c-0.6,0-1,0.4-1,1v10c0,0.6,0.4,1,1,1h14    c0.6,0,1-0.4,1-1v-1h1.7l6.8,33.1l-5.6,3.5c-1.2,0.7-1.9,2-1.9,3.4v4c0,5,4,9,9,9h2c0,6.1,4.9,11,11,11s11-4.9,11-11h13    c0,6.1,4.9,11,11,11s11-4.9,11-11h2.8c2.2,0,4-1.7,4.2-3.8C96.1,71.1,95.7,70,94.9,69.2z M38.2,20l1.4,7h-8.9l-1.4-7H38.2z     M50.2,20l1.4,7h-10l-1.4-7H50.2z M62.2,20l1.4,7h-10l-1.4-7H62.2z M74.2,20l1.4,7h-10l-1.4-7H74.2z M86.2,20l1.4,7h-10l-1.4-7    H86.2z M59.8,57.1L58.2,49h10l1.6,7.8L59.8,57.1z M47.9,57.6L46.2,49h10l1.7,8.2L47.9,57.6z M33.2,39h8.9l1.6,8h-8.9L33.2,39z     M44.1,39h10l1.6,8h-10L44.1,39z M65.7,37h-10l-1.6-8h10L65.7,37z M66.1,29h10l1.6,8h-10L66.1,29z M53.7,37h-10l-1.6-8h10L53.7,37    z M57.8,47l-1.6-8h10l1.6,8H57.8z M68.1,39h10l1.6,8h-10L68.1,39z M80.1,39h10l1.2,5.7c-0.1,0.8-0.3,1.6-0.6,2.3h-8.9L80.1,39z     M92.1,37h-0.4l-1.6-8h2.9L92.1,37z M89.7,37h-10l-1.6-8h10L89.7,37z M40,29l1.6,8H33c-0.1,0-0.1,0-0.2,0l-1.7-8H40z M36.9,57.2    L35.2,49h8.9l1.8,8.6L37,58C37,57.7,37,57.5,36.9,57.2z M77.9,56.5l-6.1,0.2L70.2,49h10l1.4,6.8C80.4,56.2,79.1,56.4,77.9,56.5z     M83.4,55.1L82.2,49h7.6C88.4,51.6,86.1,53.8,83.4,55.1z M93.2,27h-3.5l-1.4-7h5.7L93.2,27z M18,23H6v-8h12V23z M30,74    c-3.9,0-7-3.1-7-7v-4c0-0.7,0.4-1.3,0.9-1.7l6.2-3.9c0.4-0.2,0.5-0.6,0.4-1l-7.1-34.5c-0.1-0.5-0.5-0.8-1-0.8H20v-4h5    c0.9,0,1.8,0.7,2,1.6l0.1,0.3c0,0,0,0.1,0,0.1c0,0.2,0.1,0.3,0.1,0.5L35,57.6c0.2,0.8-0.2,1.6-0.9,2.1L28.8,63    c-1.1,0.7-1.8,1.9-1.8,3.2c0,2.1,1.7,3.8,3.8,3.8h3c-0.8,1.2-1.3,2.5-1.6,4H30z M43,85c-5,0-9-4-9-9s4-9,9-9s9,4,9,9S48,85,43,85z     M53.8,74c-0.3-1.5-0.8-2.8-1.6-4h16.6c-0.8,1.2-1.3,2.5-1.6,4H53.8z M78,85c-5,0-9-4-9-9s4-9,9-9s9,4,9,9S83,85,78,85z M91.8,74    h-3c-0.3-1.5-0.8-2.8-1.6-4H92c0.6,0,1.1,0.2,1.4,0.6c0.4,0.4,0.6,0.9,0.6,1.5C93.9,73.1,93,74,91.8,74z"/><path d="M43,71c-2.8,0-5,2.2-5,5s2.2,5,5,5s5-2.2,5-5S45.8,71,43,71z M43,79c-1.7,0-3-1.3-3-3s1.3-3,3-3s3,1.3,3,3S44.7,79,43,79z    "/><path d="M78,71c-2.8,0-5,2.2-5,5s2.2,5,5,5s5-2.2,5-5S80.8,71,78,71z M78,79c-1.7,0-3-1.3-3-3s1.3-3,3-3s3,1.3,3,3S79.7,79,78,79z    "/></g></g><g id="sausage"/><g id="egg"/><g id="drink"/><g id="vegetable"/></svg>